/* XPM */
static char * height_xpm[] = {
"64 64 88 1",
" 	c #E9E9E9",
".	c #CFCFCF",
"+	c #D5D5D5",
"@	c #D2D2D2",
"#	c #CBCBCB",
"$	c #EEEEEE",
"%	c #F3F3F3",
"&	c #EFEFEF",
"*	c #C4C4C4",
"=	c #C7C7C7",
"-	c #CACACA",
";	c #CECECE",
">	c #D6D6D6",
",	c #777777",
"'	c #707070",
")	c #AFAFAF",
"!	c #F7F7F7",
"~	c #FBFBFB",
"{	c #FCFCFC",
"]	c #DADADA",
"^	c #DDDDDD",
"/	c #FEFEFE",
"(	c #F9F9F9",
"_	c #7B7B7B",
":	c #737373",
"<	c #B0B0B0",
"[	c #D7D7D7",
"}	c #D4D4D4",
"|	c #E3E3E3",
"1	c #BDBDBD",
"2	c #9D9D9D",
"3	c #9C9C9C",
"4	c #BCBCBC",
"5	c #7F7F7F",
"6	c #767676",
"7	c #B2B2B2",
"8	c #FFFFFF",
"9	c #EAEAEA",
"0	c #D9D9D9",
"a	c #D3D3D3",
"b	c #C3C3C3",
"c	c #858585",
"d	c #7C7C7C",
"e	c #B3B3B3",
"f	c #FDFDFD",
"g	c #F1F1F1",
"h	c #B5B5B5",
"i	c #F0F0F0",
"j	c #F4F4F4",
"k	c #8A8A8A",
"l	c #838383",
"m	c #D0D0D0",
"n	c #909090",
"o	c #B6B6B6",
"p	c #CDCDCD",
"q	c #C9C9C9",
"r	c #949494",
"s	c #8E8E8E",
"t	c #B7B7B7",
"u	c #999999",
"v	c #939393",
"w	c #B9B9B9",
"x	c #C6C6C6",
"y	c #989898",
"z	c #BABABA",
"A	c #CCCCCC",
"B	c #A0A0A0",
"C	c #BBBBBB",
"D	c #C5C5C5",
"E	c #C2C2C2",
"F	c #A3A3A3",
"G	c #9F9F9F",
"H	c #C0C0C0",
"I	c #A6A6A6",
"J	c #A1A1A1",
"K	c #BEBEBE",
"L	c #D8D8D8",
"M	c #C8C8C8",
"N	c #A8A8A8",
"O	c #BFBFBF",
"P	c #ABABAB",
"Q	c #C1C1C1",
"R	c #AEAEAE",
"S	c #A9A9A9",
"T	c #ADADAD",
"U	c #EBEBEB",
"V	c #E4E4E4",
"W	c #DEDEDE",
" .+@#$%%%%%%%%%%%%%%%%%%%%&*=-;  .+@#$%%%%%%%%%%%%%%%%%%%%&*=-; ",
"%>,')!~~~~~~~~~{{~~~~~~~~~!)',>%%>,')!~~~~~~~~~{{~~~~~~~~~!)',>%",
"%]^]+!~~~~~~~{/((/{~~~~~~~!+]^]%%]^]+!~~~~~~~{/((/{~~~~~~~!+]^]%",
"%>_:<!~~~~~~{~^##^~{~~~~~~!<:_>%%>_:<!~~~~~~{~^##^~{~~~~~~!<:_>%",
"%]][}!~~~~~~/|1234|/~~~~~~!}[]]%%]][}!~~~~~~/|1234|/~~~~~~!}[]]%",
"%>567!~~~~~~8&9|| $8~~~~~~!765>%%>567!~~~~~~8&9|| $8~~~~~~!765>%",
"%0[aa!~~~~~~89>*b+98~~~~~~!aa[0%%0[aa!~~~~~~89>*b+98~~~~~~!aa[0%",
"%>cde!~~~~~~fg-hh-if~~~~~~!edc>%%>cde!~~~~~~fg-hh-if~~~~~~!edc>%",
"%0a.@!~~~~~~~/j||%/~~~~~~~!@.a0%%0a.@!~~~~~~~/j||%/~~~~~~~!@.a0%",
"%[klh!~~~~~~~~f//f~~~~~~~~!hlk[%%[klh!~~~~~~~~f//f~~~~~~~~!hlk[%",
"%0m#m!~~~~~~~~~~~~~~~~~~~~!m#m0%%0m#m!~~~~~~~~~~~~~~~~~~~~!m#m0%",
"%[nko!~~~~~~~~~~~~~~~~~~~~!okn[%%[nko!~~~~~~~~~~~~~~~~~~~~!okn[%",
"%0pq.!~~~~~~~~~~~~~~~~~~~~!.qp0%%0pq.!~~~~~~~~~~~~~~~~~~~~!.qp0%",
"%[rst!~~~~~~~~~~~~~~~~~~~~!tsr[%%[rst!~~~~~~~~~~~~~~~~~~~~!tsr[%",
"%0#=;!~~~~~~~~~~~~~~~~~~~~!;=#0%%0#=;!~~~~~~~~~~~~~~~~~~~~!;=#0%",
"%[uvw!~~~~~~~~~~~~~~~~~~~~!wvu[%%[uvw!~~~~~~~~~~~~~~~~~~~~!wvu[%",
"%0qxp!~~~~~~~~~~~~~~~~~~~~!pxq0%%0qxp!~~~~~~~~~~~~~~~~~~~~!pxq0%",
"%[2yz!~~~~~~~~~~~~~~~~~~~~!zy2[%%[2yz!~~~~~~~~~~~~~~~~~~~~!zy2[%",
"%0=*A!~~~~~~~~~~~~~~~~~~~~!A*=0%%0=*A!~~~~~~~~~~~~~~~~~~~~!A*=0%",
"%[B3C!~~~~~~~~~~~~~~~~~~~~!C3B[%%[B3C!~~~~~~~~~~~~~~~~~~~~!C3B[%",
"%0DE-!~~~~~~~~~~~~~~~~~~~~!-ED0%%0DE-!~~~~~~~~~~~~~~~~~~~~!-ED0%",
"%[FG4!~~~~~~~~~~~~~~~~~~~~!4GF[%%[FG4!~~~~~~~~~~~~~~~~~~~~!4GF[%",
"%0bHq!~~~~~~~~~~~~~~~~~~~~!qHb0%%0bHq!~~~~~~~~~~~~~~~~~~~~!qHb0%",
"%[IJK!~~~~~~~~~~~~~~~~~~~~!KJI[%%[IJK!~~~~~~~~~~~~~~~~~~~~!KJI[%",
"%LH1M!~~~~~~~~~~~~~~~~~~~~!M1HL%%LH1M!~~~~~~~~~~~~~~~~~~~~!M1HL%",
"%[NFO!~~~~~~~~~~~~~~~~~~~~!OFN[%%[NFO!~~~~~~~~~~~~~~~~~~~~!OFN[%",
"%L1w=!~~~~~~~~~~~~~~~~~~~~!=w1L%%L1w=!~~~~~~~~~~~~~~~~~~~~!=w1L%",
"%LPIQ!~~~~~~~~~~~~~~~~~~~~!QIPL%%LPIQ!~~~~~~~~~~~~~~~~~~~~!QIPL%",
"%Lwhx!~~~~~~~~~~~~~~~~~~~~!xhwL%%Lwhx!~~~~~~~~~~~~~~~~~~~~!xhwL%",
"%LRSE!~~~~~~~~~~~~~~~~~~~~!ESRL%%LRSE!~~~~~~~~~~~~~~~~~~~~!ESRL%",
"%Lh<*!~~~~~~~~~~~~~~~~~~~~!*<hL%%Lh<*!~~~~~~~~~~~~~~~~~~~~!*<hL%",
"%L7Tb!~~~~~~~~~~~~~~~~~~~~!bT7L%%L7Tb!~~~~~~~~~~~~~~~~~~~~!bT7L%",
"%L7Tb!~~~~~~~~~~~~~~~~~~~~!bT7L%%L7Tb!~~~~~~~~~~~~~~~~~~~~!bT7L%",
"%Lh<*!~~~~~~~~~~~~~~~~~~~~!*<hL%%Lh<*!~~~~~~~~~~~~~~~~~~~~!*<hL%",
"%LRSE!~~~~~~~~~~~~~~~~~~~~!ESRL%%LRSE!~~~~~~~~~~~~~~~~~~~~!ESRL%",
"%Lwhx!~~~~~~~~~~~~~~~~~~~~!xhwL%%Lwhx!~~~~~~~~~~~~~~~~~~~~!xhwL%",
"%LPIQ!~~~~~~~~~~~~~~~~~~~~!QIPL%%LPIQ!~~~~~~~~~~~~~~~~~~~~!QIPL%",
"%L1w=!~~~~~~~~~~~~~~~~~~~~!=w1L%%L1w=!~~~~~~~~~~~~~~~~~~~~!=w1L%",
"%[NFO!~~~~~~~~~~~~~~~~~~~~!OFN[%%[NFO!~~~~~~~~~~~~~~~~~~~~!OFN[%",
"%LH1M!~~~~~~~~~~~~~~~~~~~~!M1HL%%LH1M!~~~~~~~~~~~~~~~~~~~~!M1HL%",
"%[IJK!~~~~~~~~~~~~~~~~~~~~!KJI[%%[IJK!~~~~~~~~~~~~~~~~~~~~!KJI[%",
"%0bHq!~~~~~~~~~~~~~~~~~~~~!qHb0%%0bHq!~~~~~~~~~~~~~~~~~~~~!qHb0%",
"%[FG4!~~~~~~~~~~~~~~~~~~~~!4GF[%%[FG4!~~~~~~~~~~~~~~~~~~~~!4GF[%",
"%0DE#!~~~~~~~~~~~~~~~~~~~~!#ED0%%0DE#!~~~~~~~~~~~~~~~~~~~~!#ED0%",
"%[B3C!~~~~~~~~~~~~~~~~~~~~!C3B[%%[B3C!~~~~~~~~~~~~~~~~~~~~!C3B[%",
"%0=*A!~~~~~~~~~~~~~~~~~~~~!A*=0%%0=*A!~~~~~~~~~~~~~~~~~~~~!A*=0%",
"%[2yz!~~~~~~~~~~~~~~~~~~~~!zy2[%%[2yz!~~~~~~~~~~~~~~~~~~~~!zy2[%",
"%0qxp!~~~~~~~~~~~~~~~~~~~~!pxq0%%0qxp!~~~~~~~~~~~~~~~~~~~~!pxq0%",
"%[uvw!~~~~~~~~~~~~~~~~~~~~!wvu[%%[uvw!~~~~~~~~~~~~~~~~~~~~!wvu[%",
"%0#=;!~~~~~~~~~~~~~~~~~~~~!;=#0%%0#=;!~~~~~~~~~~~~~~~~~~~~!;=#0%",
"%[rst!~~~~~~~~~~~~~~~~~~~~!tsr[%%[rst!~~~~~~~~~~~~~~~~~~~~!tsr[%",
"%0pq.!~~~~~~~~~~~~~~~~~~~~!.qp0%%0pq.!~~~~~~~~~~~~~~~~~~~~!.qp0%",
"%[nko!~~~~~~~~~~~~~~~~~~~~!okn[%%[nko!~~~~~~~~~~~~~~~~~~~~!okn[%",
"%0m#m!~~~~~~~~~~~~~~~~~~~~!m#m0%%0m#m!~~~~~~~~~~~~~~~~~~~~!m#m0%",
"%[klh!~~~~~~~~f//f~~~~~~~~!hlk[%%[klh!~~~~~~~~f//f~~~~~~~~!hlk[%",
"%0a.@!~~~~~~~/j||j/~~~~~~~!@.a0%%0a.@!~~~~~~~/j||j/~~~~~~~!@.a0%",
"%>cde!~~~~~~fg#oh-gf~~~~~~!edc>%%>cde!~~~~~~fg#oh-gf~~~~~~!edc>%",
"%0[aa!~~~~~~8ULMM[U8~~~~~~!aa[0%%0[aa!~~~~~~8ULMM[U8~~~~~~!aa[0%",
"%>567!~~~~~~8&9VV9$8~~~~~~!765>%%>567!~~~~~~8&9VV9$8~~~~~~!765>%",
"%]][}!~~~~~~/VK221|/~~~~~~!}[]]%%]][}!~~~~~~/VK221|/~~~~~~!}[]]%",
"%>_:<!~~~~~~{~WA#W~{~~~~~~!<:_>%%>_:<!~~~~~~{~WA#W~{~~~~~~!<:_>%",
"%]^]+!~~~~~~~{/((/{~~~~~~~!+]^]%%]^]+!~~~~~~~{/((/{~~~~~~~!+]^]%",
"%>,')!~~~~~~~~~{{~~~~~~~~~!)',>%%>,')!~~~~~~~~~{{~~~~~~~~~!)',>%",
" .+@#$%%%%%%%%%%%%%%%%%%%%&*=q;  .+@#$%%%%%%%%%%%%%%%%%%%%&*=q; "};
