/* XPM */
static char * T_21_Normal_xpm[] = {
"64 64 99 2",
"  	c #758BFD",
". 	c #7EA3F9",
"+ 	c #7FA3F9",
"@ 	c #80A4F9",
"# 	c #7FA4F9",
"$ 	c #81A3F9",
"% 	c #8C8CFD",
"& 	c #758CFD",
"* 	c #80A4F8",
"= 	c #6081F9",
"- 	c #689AF7",
"; 	c #7EB1F5",
"> 	c #80B2F5",
", 	c #7FB2F4",
"' 	c #81B1F5",
") 	c #9B9AF7",
"! 	c #A381F9",
"~ 	c #679BF7",
"{ 	c #7FB1F5",
"] 	c #7FB2F5",
"^ 	c #9B9BF7",
"/ 	c #679AF7",
"( 	c #9A9AF7",
"_ 	c #5F80F9",
": 	c #4E81F5",
"< 	c #9A9BF7",
"[ 	c #B181F5",
"} 	c #A480F8",
"| 	c #80B2F4",
"1 	c #A480F9",
"2 	c #689BF7",
"3 	c #5F7FF9",
"4 	c #A47FF9",
"5 	c #4D80F5",
"6 	c #B280F5",
"7 	c #4D7FF5",
"8 	c #B280F4",
"9 	c #B27FF5",
"0 	c #4D7FF4",
"a 	c #B27FF4",
"b 	c #6999F8",
"c 	c #9999F8",
"d 	c #699AF8",
"e 	c #9A99F8",
"f 	c #689AF8",
"g 	c #4E7FF5",
"h 	c #6969F8",
"i 	c #9A69F8",
"j 	c #B17EF5",
"k 	c #5F80F8",
"l 	c #4E7EF5",
"m 	c #9969F8",
"n 	c #B17FF5",
"o 	c #6868F7",
"p 	c #7E4EF5",
"q 	c #814EF5",
"r 	c #9A68F7",
"s 	c #6767F7",
"t 	c #9B67F7",
"u 	c #6867F7",
"v 	c #9A67F7",
"w 	c #804DF5",
"x 	c #7F4DF5",
"y 	c #804DF4",
"z 	c #7F4DF4",
"A 	c #9B68F7",
"B 	c #7F4EF5",
"C 	c #607FF9",
"D 	c #A27FF9",
"E 	c #607EF9",
"F 	c #A27EF9",
"G 	c #6768F7",
"H 	c #A37FF9",
"I 	c #7575FD",
"J 	c #7F60F9",
"K 	c #805FF9",
"L 	c #7F5FF9",
"M 	c #8160F9",
"N 	c #8C75FD",
"O 	c #7E60F9",
"P 	c #7EA2F9",
"Q 	c #4E80F5",
"R 	c #999AF8",
"S 	c #4D80F4",
"T 	c #6969F7",
"U 	c #A47FF8",
"V 	c #5F7FF8",
"W 	c #A37EF9",
"X 	c #7FA4F8",
"Y 	c #81A2F9",
"Z 	c #A280F9",
"` 	c #80B1F5",
" .	c #9A9AF8",
"..	c #805FF8",
"+.	c #7FA2F9",
"@.	c #A281F9",
"#.	c #B180F5",
"$.	c #6968F8",
"%.	c #8C75FC",
"  . + @ @ @ @ # @ @ # @ # @ $ % & . @ @ @ @ # @ # @ @ # @ * $ % & . @ @ @ @ @ @ @ # # @ @ @ $ % & + @ @ @ # @ @ @ @ @ @ # @ $ % ",
"= - ; > > > , > > > , > , ' ) ! = ~ { ] > > > > > > > > > ' ) ! = ~ { > ] ] > > , > > ] > ' ^ ! = / ; > > > ] > > ] > ] > ' ( ! ",
"_ : ~ ; > > > > > > > > ' < [ } _ : / ; > , > | , , , > ' ( [ 1 _ : 2 ; > > > > > > > > ' ^ [ 1 3 : / { > > > > ] ] , > ' ( [ 4 ",
"_ 5 : / { > > > > > > ' ( [ 6 4 3 5 : / ; , > > > > > ' ^ [ 6 4 _ 7 : / { > > ] > | > ' ^ [ 6 1 _ 5 : / ; ] , > > > > ' < [ 6 4 ",
"_ 5 5 : / { , , > > ' ^ [ 6 6 1 _ 5 5 : ~ ; > > , > ' ^ [ 6 6 1 3 5 5 : / ; > > > > ' ^ [ 6 6 } _ 7 7 : - ; > > > > ' ( [ 6 6 1 ",
"_ 7 5 5 : / ; , > ' ( [ 6 6 6 1 _ 5 7 5 : / ; > > ' ) [ 6 6 8 4 _ 5 5 5 : / ; > > ' ^ [ 9 9 6 4 _ 0 0 5 : / ; > > ' ) [ a 6 6 1 ",
"_ 5 5 5 5 : / ; ' ^ [ 6 6 6 6 1 _ 7 5 5 5 : ~ ; ' ( [ 6 a 6 6 4 _ 7 5 5 5 : - ; ' ( [ 6 6 6 6 1 _ 5 5 0 5 : - ; ' < [ 9 a 6 9 4 ",
"_ 5 5 5 5 5 : b c [ 6 6 6 9 6 1 _ 0 5 7 0 5 : d e [ 6 6 6 6 a 1 _ 7 7 5 5 5 : b c [ 6 6 6 6 6 1 _ 5 7 5 5 5 : f e [ 6 a 6 8 a 1 ",
"_ 5 5 5 5 5 g h i j a 6 6 9 6 1 k 5 5 5 7 5 g h i j 6 6 6 6 6 1 _ 7 5 5 5 5 l h i j 6 6 6 6 6 1 _ 5 5 5 5 7 g h m n 6 6 6 6 6 1 ",
"3 7 5 5 5 l o p q r n 6 6 9 a 1 _ 5 5 5 5 l s p q t j 6 6 9 6 1 3 7 7 7 5 l u p q v j 6 6 6 6 1 k 5 5 5 5 l u p q r j a 6 6 6 1 ",
"_ 5 5 5 l s p w w q t j 6 6 a 1 3 5 5 5 l u p x w q t n 6 9 9 1 _ 0 5 5 l s p x w q t j 6 9 8 1 _ 5 5 5 l o p w w q v n 6 6 6 4 ",
"3 7 7 l o p x w w w q v j 6 9 1 _ 5 5 l s p w y x w q r j 6 6 1 _ 5 5 g o p w z w x q v j 6 6 1 _ 5 5 l s p w w w x q t j 6 6 1 ",
"_ 5 g o p w w w w z w q A j 9 1 _ 5 g s B x w w x w w q v j 9 1 _ 5 l u p w w w w w w q v j 6 1 3 7 l u p w w w x z w q t n 6 1 ",
"_ l s p w w w w w w w w q t j 4 _ l s p w w w x x w w w q v n 1 _ l u p w w w w w w w w q t j 1 _ g s p w w w w z z w w q t j 1 ",
"C u p w x w w z z w w w w q t D E o p w x w w z w z w w w q v F C G B w w w x w w w w x w q r H C s p z w w x y w w w w w q v F ",
"I J K L K K L K K L K K K K M N I O K L K K K K K K K K K K M N I J K K L K K K K K K K K L M N I O K K K K K K K K L K L K M N ",
"& . @ @ @ @ # @ @ @ @ @ @ # $ % & + @ @ # @ # @ # * @ # @ @ $ % & P # @ @ @ @ @ @ # @ @ @ @ $ % & . @ @ @ @ @ @ @ @ @ @ @ + $ % ",
"= / ; > > > > , ] > > , > ' ^ ! = 2 ; > > > > > > > > > > ' ( ! = ~ { > > ] > > ] > > ] > ' ) ! = / ; > > > ] > > > > > , ' ( ! ",
"_ : ~ { > ] > ] > > > > ' ) [ 1 _ : 2 ; > > , > > ] > > ' ( [ 1 3 : / { ] > ] > , > > , ' < [ 4 _ : / ; > > > > > > > > ' ( [ 1 ",
"_ 5 : 2 ; > > > > ] > ' < [ 6 1 _ 5 : ~ ; > > ] > ] > ' ( [ 6 1 _ 5 : 2 { > > > > > > ' ) [ 6 1 3 0 Q ~ ; ] > > | > > ' ( [ 6 4 ",
"_ 7 5 : / ; > > > ] ' ( [ 9 6 1 _ 5 5 : - ; > > ] > ' ( [ 6 6 1 _ 5 5 : - ; ] , ] > ' ) [ 6 6 1 _ 7 7 : / { > > > > ' ) [ 9 6 1 ",
"_ 7 0 5 : / ; > > ' < [ 6 6 6 1 3 7 5 5 : / ; > > ' ) [ 6 6 6 1 k 5 7 7 : 2 ; > > ' ) [ 6 6 6 4 _ 7 5 5 : 2 ; , > ' ( [ 8 a 6 1 ",
"_ 5 5 5 5 : ~ { ' ( [ 6 6 6 6 1 _ 5 7 0 5 : / { ' ^ [ 6 6 6 6 1 _ 5 7 5 5 : 2 ; ' ) [ 6 9 6 6 4 _ 5 5 5 5 : / ; ' ( [ 6 6 6 6 1 ",
"3 7 5 5 5 5 : b R [ 6 9 6 6 6 1 _ 5 5 7 5 7 : d c [ 6 9 6 6 6 1 _ 5 5 S 7 5 : d c [ 6 6 9 6 9 1 _ 5 5 7 5 5 : b c [ 6 6 6 6 6 4 ",
"3 5 5 0 5 5 g T i j 6 6 6 6 9 1 _ 7 5 7 5 5 l h m j 6 9 6 9 6 U 3 5 5 7 5 5 l h m n 6 6 6 6 9 1 _ 0 5 5 5 5 g h i j 6 6 9 6 6 1 ",
"3 5 5 5 5 l u p q r j 6 9 6 6 1 _ 5 5 5 5 l s p q v j 6 6 6 9 4 3 5 5 5 5 l G p q t n 9 6 9 6 4 3 5 5 5 5 l G p q v n 6 6 9 6 1 ",
"_ 5 7 5 l u p x w q t j 6 6 9 H 3 5 5 5 g u p w w q t j 6 6 6 4 3 7 5 5 l G p w w q r j 6 6 6 1 _ 5 7 5 l G B w w q t j 6 9 6 4 ",
"_ 5 5 l G B w x z w q A j 6 6 1 _ 5 7 l s B x w w z q r j 6 6 1 _ 7 5 l s B w w w w q v j 6 6 1 _ 5 5 l u p w w w w q t j 6 6 1 ",
"_ 5 l s B w w z w w w q v j 9 1 _ 5 l s p x x x w w w q r j 9 1 _ 5 l u p w w w x w w q r j 6 1 3 7 l u p x x w w w x q A j 6 1 ",
"_ g G p w w w w w w w z q v j 1 V l G p w w w x w x w w q v j 1 3 g o p w x w w w x w w q v j 1 3 l s p w w w w w w w w q t j 4 ",
"E s p x w w z w w w w x w q r H E u p w w w w z x w w w z q v W C s p w w x w w w x w w w q r H E u p w x w w w w w w w x q A H ",
"I J L K K K K K K K K L K L M N I J L L K L L K K K K K K K M N I O K K K K K K K K K K K K M N I O L K L L L K K L K K K K M N ",
"& + @ @ @ # @ * @ + @ @ @ # $ % & . # @ @ @ @ @ @ # @ # @ @ $ % & . @ @ @ @ @ @ @ # @ @ @ @ $ % & . @ @ @ # @ @ # @ X @ @ @ Y % ",
"= - { > > > > > > > ] > > ' ( Z = - ; > ] > > ] > > > > > ' ( ! = 2 ; ] > , > > > > , ] > ' < ! = 2 ; > ] > , > > > > > > ' ^ ! ",
"_ : / ; > > > > > > > > ' ^ [ 1 _ : / ; > > ] > > > > > ' ) [ 4 _ : - ; > > > > > > > > ' ( [ 1 _ : / ; > > > ] ] > > > ' ( [ 1 ",
"_ 5 : ~ ; ] > ] > > > ' < [ 6 1 _ 5 : - { ] > > > > > ' ( [ 6 1 _ 5 : - ; > ] > > > > ' ( [ 6 1 3 5 : ~ ; ] > > > ] > ' ( [ 6 4 ",
"_ 0 5 : - ; , > , > ' ^ [ 6 6 1 _ 5 5 : 2 { > > > > ' ^ [ 6 6 1 3 5 5 : / { > > > > ` ^ [ 6 6 1 3 5 5 : ~ ; > , > ] ' ( [ 6 6 1 ",
"_ 5 5 5 : / ; > ] ' ( [ 6 a 6 1 3 5 0 S : - ; > > ' ( [ 6 6 6 1 _ 7 S 0 : 2 { > > ' ( [ a 6 a 1 _ 5 5 5 : - { > > ' ) [ 6 6 9 1 ",
"_ 5 5 0 5 : / ; ' ( [ 6 6 6 9 1 _ 0 7 5 5 : / ; ' ( [ 6 9 6 9 1 _ 5 5 5 5 : / ; ' < [ 6 6 6 9 1 _ 0 5 0 S : / ; ' ) [ 6 6 8 9 4 ",
"_ 5 5 5 7 5 : d  .[ 6 6 6 6 9 1 _ 5 5 5 5 5 : b c [ 6 9 6 6 a 1 _ 0 0 5 5 5 : b c [ 6 9 6 6 6 1 _ 7 5 5 5 5 : b R [ 9 6 6 9 9 1 ",
"_ 5 0 S 7 5 g h m j 6 6 6 6 6 1 _ 0 7 5 0 5 g h m j 6 6 6 6 9 1 _ 5 5 5 5 7 l h m j 6 6 6 6 6 1 _ 5 5 5 5 5 l h m j 9 6 6 6 6 1 ",
"_ 5 5 5 0 l u B q v j 6 6 6 6 1 k 7 5 5 5 l o p q v j a 9 6 6 1 _ 5 5 5 5 g s p q A n 9 6 6 6 1 _ 5 0 5 5 l o p q v n 6 6 6 6 4 ",
"_ 5 5 0 g o p w w q r j 6 6 9 1 3 5 5 5 g G p w z q r j 6 6 a 1 _ 5 5 5 l u p w w q v n 6 9 6 1 _ 5 5 5 l u p z w q A n 6 9 6 1 ",
"_ 5 5 l s p w w w x q r j 9 6 1 _ 5 5 l o B z w w x q v n 6 9 1 _ 5 5 l o p w w w w q v j 6 6 1 _ 5 7 g u B x x w w q v j 9 6 1 ",
"V 5 l u B w w w w w w q A j 6 1 _ 5 g s p w z z w x w q A j 6 4 _ 5 l G p x x z w w w q A j 6 1 _ 5 l G p x w z w w z q r n 9 1 ",
"_ g G p w w x w w w w w q v j 1 _ l G p w w w w w w x z q r n 1 _ l o p w w z w w w w w q v j 1 3 g G p w w z w w w w w q v j 1 ",
"C s p w y x w w w w w z w q r F C s p w w z w w z x w w w q v H C s p w w w w w w w w z w q v H E u p w w x w w w w w w w q t F ",
"I O K K K K K K K K K K K K M N I O K K K K ..K K K L K K L M N I J L K K L K K L K K K K K M N I O L K K L L L K K K L L K M N ",
"& + @ @ @ @ # @ @ @ @ # @ @ $ % & +.@ @ @ # @ # @ @ @ # # @ $ % & + @ @ + @ @ @ @ @ @ @ @ @ $ % & . @ @ @ # @ @ @ @ @ @ @ @ $ % ",
"= / ; > > > > > ] > > > ] ' ( ! = ~ ; > > > > | > > > > , ' ) @.= 2 ; ] > ] > > > > > ] , ' ^ ! = - ; > > > > , > ] > > > ' ^ ! ",
"_ : / { > > > > > > > > ' ( [ 1 _ : ~ ; > > > > ] > > > ' ^ [ 4 3 : / ; > > , > ] > > > ' ) [ 4 3 : ~ { > > ] > > > > > ' ) #.1 ",
"_ 5 : / { ] > > ] > > ' ^ #.a 4 _ 5 : - ; ] > > > > > ' ) [ 6 1 _ 5 : / { > > > > > > ' ( [ 6 1 _ 5 : / { > ] > > > > ' < [ 6 1 ",
"_ 5 5 : - ; > > > > ' ^ [ 6 6 1 _ 5 5 : ~ ; > > > > ' < [ 6 6 1 _ 5 S : / ; ] > ] > ` ( [ 6 6 1 _ 5 5 : / { > ] > > ' ( [ 9 6 1 ",
"3 5 5 5 : - ; > > ' ( [ 9 9 6 4 _ 0 7 5 : / ; > > ' ( [ 9 6 6 U _ 0 5 7 : / ; > > ' < [ 9 6 6 1 _ 0 0 7 : / ; > > ' ) [ 6 9 6 1 ",
"_ 5 5 5 5 : - ; ' ( [ 6 9 6 6 1 _ 5 5 5 7 : - ; ' ) [ 6 6 9 6 1 _ 7 5 5 0 : / { ' ) [ 6 6 6 6 1 _ 5 5 5 5 : - { ' ( [ 9 9 6 6 1 ",
"3 5 5 5 5 7 : d c [ 6 6 6 6 6 4 _ 0 5 5 5 7 : b c [ 9 6 9 6 8 1 3 5 5 5 5 5 : b  .[ 6 9 6 a 6 1 _ 7 7 5 5 S : b c [ 9 6 6 6 6 4 ",
"3 0 5 5 7 5 l h m j 9 6 6 9 6 1 3 5 5 7 7 7 l $.i j a 6 6 6 6 1 3 5 5 5 5 5 l h m j 6 6 a 6 8 4 _ 5 5 5 7 0 l h m j 9 6 6 6 9 4 ",
"3 5 5 5 5 g o p q r n 6 6 6 6 1 _ 5 7 5 5 l s p q r j 6 6 6 9 1 _ 5 5 7 5 l s p q t j 6 a 9 9 1 _ 5 5 5 5 l u p q v n 6 a 6 6 1 ",
"_ 7 0 5 l o p z w q v n 9 a 6 1 3 5 5 5 l s p z w q A j 6 6 6 1 3 7 5 5 l s p w w q v j 6 6 6 1 _ 5 5 5 l G p x w q r j a 6 6 1 ",
"3 5 5 l s p w y w w q v j 6 a 1 _ 5 0 l G B x w w w q v j 6 a 1 _ 5 5 l u B w x w w q v j 6 6 1 3 5 5 g G p w w w w q v j 6 6 1 ",
"3 7 l u B w x x x z x q v j 9 1 _ 7 l o B w w w w w x q v j 6 4 3 5 l s p w w w w w w q v j 6 1 _ 5 g s p w w w w w w q t j 9 1 ",
"_ l s p z w w w w w w w q v n 1 _ l s p x w w w x w w w q r n 1 _ l G p w w x w z x w w q A n 1 _ g s p w z w x x w w x q v j 4 ",
"C G p w w x w w w w z z w q v W E u p x w w w w x w x w w q r H E s p w w w w z w w w w x q v W C G B w w x z w z w w w w q t H ",
"I O K K K L L K K L K K K K M %.I J K L K K K K K L K K K L M N I O K K L L K K K K K L L K M N I J K K K K K K K L K K L K M N "};
