/* XPM */
static char * no_texture_xpm[] = {
"64 64 204 2",
"  	c #060B2F",
". 	c #060B30",
"+ 	c #060B32",
"@ 	c #070C36",
"# 	c #070C34",
"$ 	c #080E3D",
"% 	c #0B1358",
"& 	c #0C1666",
"* 	c #0D186F",
"= 	c #0E1971",
"- 	c #0E1974",
"; 	c #0E1976",
"> 	c #0E1A78",
", 	c #0F1B7D",
"' 	c #101D83",
") 	c #101D85",
"! 	c #101D86",
"~ 	c #101D88",
"{ 	c #080E3F",
"] 	c #070D3B",
"^ 	c #091048",
"/ 	c #0D1768",
"( 	c #111F8C",
"_ 	c #111F8F",
": 	c #122095",
"< 	c #122093",
"[ 	c #122096",
"} 	c #122198",
"| 	c #13229E",
"1 	c #13229C",
"2 	c #070C38",
"3 	c #091046",
"4 	c #09104D",
"5 	c #0A124F",
"6 	c #070C39",
"7 	c #0C155F",
"8 	c #1323A1",
"9 	c #1424A5",
"0 	c #1424A8",
"a 	c #1424AA",
"b 	c #1526AE",
"c 	c #1526B0",
"d 	c #1526B1",
"e 	c #1628B7",
"f 	c #1628B9",
"g 	c #1628BA",
"h 	c #1729BE",
"i 	c #172AC0",
"j 	c #172AC1",
"k 	c #172AC3",
"l 	c #172AC5",
"m 	c #080E42",
"n 	c #0B145B",
"o 	c #0C1664",
"p 	c #0B1356",
"q 	c #0A1251",
"r 	c #0F1B7A",
"s 	c #182CCE",
"t 	c #192DD0",
"u 	c #192DD3",
"v 	c #1A2FD7",
"w 	c #1A2FDB",
"x 	c #1A30DE",
"y 	c #1B31E2",
"z 	c #1B31E4",
"A 	c #2036E5",
"B 	c #2137E5",
"C 	c #273CE6",
"D 	c #2A3FE6",
"E 	c #2E42E7",
"F 	c #3044E7",
"G 	c #0D186D",
"H 	c #101C81",
"I 	c #0F1B7C",
"J 	c #2338E5",
"K 	c #3145E7",
"L 	c #3347E7",
"M 	c #394CE8",
"N 	c #3A4DE8",
"O 	c #4053E9",
"P 	c #4355E9",
"Q 	c #4254E9",
"R 	c #4759EA",
"S 	c #4E5FEA",
"T 	c #5263EB",
"U 	c #5565EB",
"V 	c #5767EB",
"W 	c #5C6CEC",
"X 	c #606FEC",
"Y 	c #6271ED",
"Z 	c #6574ED",
"` 	c #111F8E",
" .	c #5B6BEC",
"..	c #5E6EEC",
"+.	c #6776ED",
"@.	c #6977ED",
"#.	c #707EEE",
"$.	c #7482EF",
"%.	c #7986EF",
"&.	c #808CF0",
"*.	c #8793F1",
"=.	c #8F9AF2",
"-.	c #909BF2",
";.	c #0C1663",
">.	c #13229F",
",.	c #6B79EE",
"'.	c #7280EF",
").	c #7784EF",
"!.	c #7B88F0",
"~.	c #8490F1",
"{.	c #8692F1",
"].	c #8D98F2",
"^.	c #949EF2",
"/.	c #99A3F3",
"(.	c #9BA5F3",
"_.	c #A2ABF4",
":.	c #A4ADF4",
"<.	c #A8B0F5",
"[.	c #A6AFF5",
"}.	c #AAB2F5",
"|.	c #ABB3F5",
"1.	c #1323A3",
"2.	c #7D8AF0",
"3.	c #828EF0",
"4.	c #8B96F1",
"5.	c #929DF2",
"6.	c #9FA8F4",
"7.	c #B1B9F6",
"8.	c #B4BBF6",
"9.	c #B6BDF6",
"0.	c #B8BFF7",
"a.	c #BAC1F7",
"b.	c #BBC2F7",
"c.	c #0D176B",
"d.	c #1526AC",
"e.	c #4557E9",
"f.	c #8994F1",
"g.	c #A1AAF4",
"h.	c #AFB7F6",
"i.	c #B2B9F6",
"j.	c #BFC5F7",
"k.	c #C1C7F8",
"l.	c #C6CBF8",
"m.	c #C4CAF8",
"n.	c #09104B",
"o.	c #0A1254",
"p.	c #0F1B7F",
"q.	c #182CCC",
"r.	c #96A0F3",
"s.	c #9DA7F4",
"t.	c #CACFF9",
"u.	c #CDD2F9",
"v.	c #D1D6FA",
"w.	c #D5D9FA",
"x.	c #1627B5",
"y.	c #5465EB",
"z.	c #D6DAFA",
"A.	c #D8DCFA",
"B.	c #DCDFFB",
"C.	c #DDE0FB",
"D.	c #192ED5",
"E.	c #5969EC",
"F.	c #ADB5F5",
"G.	c #BDC3F7",
"H.	c #CCD1F9",
"I.	c #D3D7FA",
"J.	c #DFE2FB",
"K.	c #E1E4FB",
"L.	c #E3E6FC",
"M.	c #E5E8FC",
"N.	c #1526B3",
"O.	c #DADEFB",
"P.	c #E6E8FC",
"Q.	c #E8EAFC",
"R.	c #0B145A",
"S.	c #12219A",
"T.	c #EAECFC",
"U.	c #0D176A",
"V.	c #1A2FD9",
"W.	c #CFD4F9",
"X.	c #ECEEFD",
"Y.	c #C8CDF9",
"Z.	c #C3C9F8",
"`.	c #111F91",
" +	c #98A2F3",
".+	c #091049",
"++	c #0B145D",
"@+	c #080F44",
"#+	c #7683EF",
"$+	c #192DD2",
"%+	c #293EE6",
"&+	c #3549E7",
"*+	c #3E51E8",
"=+	c #495BEA",
"-+	c #6473ED",
";+	c #0E1973",
">+	c #1B31E0",
",+	c #1C32E5",
"'+	c #080E40",
")+	c #182BC7",
"!+	c #182CCA",
"~+	c #1A2FDC",
"{+	c #1E34E5",
"]+	c #1628BC",
"  . . + + @ @ @ @ . # $ % & * = - ; ; ; > > , , , ' ) ) ! ~ ! ~ ~ ! ~ ! ) ) ' , , , > > ; ; ; - = * & % $ # . @ @ @ @ + + . .   ",
".   + + # @ { ] @ # @ ^ / > ) ' ) ' ~ ~ ( _ _ : < [ } } } | | 1 1 | | } } } [ < : _ _ ( ~ ~ ' ) ' ) > / ^ @ # @ ] { @ # + +   . ",
"+ + # @ 2 3 4 5 3 6 { 7 ' } 8 9 0 a a b c d e f g h i j k l l l l l l k j i h g f e d c b a a 0 9 8 } ' 7 { 6 3 5 4 3 2 @ # + + ",
"# # 2 m ^ n & o p ^ q r 0 j s t u v v w x y z A B C C D E E F F F F E E D C C B A z y x w v v u t s j 0 r q ^ p o & n ^ m 2 # # ",
"@ $ 3 q % G H I / % o < t J K L M N O P Q R S T U V W X X Y Y Z Z Y Y X X W V U T S R Q P O N M L K J t < o % / I H G % q 3 $ @ ",
"] 3 4 % & , < ` > / * 0 B P T  .W ..Y +.@.#.$.%.&.&.*.*.=.=.-.-.-.-.=.=.*.*.&.&.%.$.#.@.+.Y ..W  .T P B 0 * / > ` < , & % 4 3 ] ",
"m 4 p ;.* ~ >.} ' = > f K W ,.'.$.).!.&.~.{.].^./.(._.:.<.[.}.|.|.}.[.<.:._.(./.^.].{.~.&.!.).$.'.,.W K f > = ' } >.~ * ;.p 4 m ",
"3 q n o ; _ 9 1.~ - , h O @.).2.3.{.4.=.5.^.(.6.[.}.7.8.9.0.a.b.b.a.0.9.8.7.}.[.6.(.^.5.=.4.{.3.2.).@.O h , - ~ 1.9 _ ; o n q 3 ",
"^ 5 7 c.; } d.0 _ ; ) k e.'.&.{.f.=.^././.g.<.h.i.9.b.j.k.l.m.l.l.m.l.k.j.b.9.i.h.<.g././.^.=.f.{.&.'.e.k ) ; _ 0 d.} ; c.7 5 ^ ",
"n.o.o * I [ b a [ p.! q.S !.4.5.^.r.s._.:.}.i.a.b.k.l.t.u.v.v.w.w.v.v.u.t.l.k.b.a.i.}.:._.s.r.^.5.4.!.S q.! p.[ a b [ I * o o.n.",
"5 p & * ) | x.c } , ( t y.~.^./.g.g.[.}.h.9.a.k.l.u.v.z.A.A.B.C.C.B.A.A.z.v.u.l.k.a.9.h.}.[.g.g./.^.~.y.t ( , } c x.| ) * & p 5 ",
"5 % o * H >.f x.} ' ` D.E.*.r.s.:.[.F.i.8.G.m.l.H.I.z.B.J.K.L.M.M.L.K.J.B.z.I.H.l.m.G.8.i.F.[.:.s.r.*.E.D.` ' } x.f >.H * o % 5 ",
"5 n / ; ) >.f N.} ' ` u  .].(.g.[.}.h.9.0.G.l.t.v.z.O.K.M.P.P.Q.Q.P.P.M.K.O.z.v.t.l.G.0.9.h.}.[.g.(.]. .u ` ' } N.f >.) ; / n 5 ",
"q R./ - ' >.e N.S.! ` D.X =.s._.[.|.7.0.a.j.l.H.I.A.B.L.M.Q.Q.T.T.Q.Q.M.L.B.A.I.H.l.j.a.0.7.|.[._.s.=.X D.` ! S.N.e >.' - / R.q ",
"q R.U.- ! 8 f x.} ! ` v ..=.g.:.}.|.i.9.b.j.t.H.w.A.B.L.M.P.P.Q.Q.P.P.M.L.B.A.w.H.t.j.b.9.i.|.}.:.g.=...v ` ! } x.f 8 ! - U.R.q ",
"q R./ ; ) 1.f N.S.' < V...].6.:.}.|.i.0.b.k.l.W.w.A.B.L.P.Q.P.X.X.P.Q.P.L.B.A.w.W.l.k.b.0.i.|.}.:.6.]...V.< ' S.N.f 1.) ; / R.q ",
"5 R.& - ' 1.f d } ) ` v X 4.g.:.<.F.i.0.G.k.l.u.w.A.B.L.M.Q.Q.Q.Q.Q.Q.M.L.B.A.w.u.l.k.G.0.i.F.<.:.g.4.X v ` ) } d f 1.' - & R.5 ",
"q % U.- ' 8 f d } ) _ v X ].s.:.[.h.7.9.a.j.t.H.w.A.C.L.P.Q.P.T.T.P.Q.P.L.C.A.w.H.t.j.a.9.7.h.[.:.s.].X v _ ) } d f 8 ' - U.% q ",
"q n / ; ' 8 f N.} ! _ D.W ].g._.}.F.i.9.b.k.Y.H.w.A.B.L.M.P.P.X.X.P.P.M.L.B.A.w.H.Y.k.b.9.i.F.}._.g.].W D._ ! } N.f 8 ' ; / n q ",
"q n / - ! 8 f N.S.' _ V.X ].g.:.<.F.8.9.b.Z.Y.H.w.A.C.J.P.P.P.X.X.P.P.P.J.C.A.w.H.Y.Z.b.9.8.F.<.:.g.].X V._ ' S.N.f 8 ! - / n q ",
"q R.& ; ' | f d } ) ( D...].6.:.[.F.i.0.a.j.Y.u.w.A.C.L.L.P.P.T.T.P.P.L.L.C.A.w.u.Y.j.a.0.i.F.[.:.6.]...D.( ) } d f | ' ; & R.q ",
"5 % & - ' 8 f d } ) ` v ..=.6.:.}.F.7.0.b.k.l.W.w.A.C.L.M.P.P.X.X.P.P.M.L.C.A.w.W.l.k.b.0.7.F.}.:.6.=...v ` ) } d f 8 ' - & % 5 ",
"q n / ; ) >.f d } ' _ D.X ].s.:.}.F.7.9.a.j.Y.H.w.A.B.L.P.Q.P.T.T.P.Q.P.L.B.A.w.H.Y.j.a.9.7.F.}.:.s.].X D._ ' } d f >.) ; / n q ",
"q % & - ! 8 f N.} ! ` v ..].6.:.[.F.8.9.G.j.Y.H.w.A.C.L.L.P.P.T.T.P.P.L.L.C.A.w.H.Y.j.G.9.8.F.[.:.6.]...v ` ! } N.f 8 ! - & % q ",
"4 n / - ' 8 f N.} ' ` v ..=.g._.}.F.8.0.a.k.t.H.w.A.C.L.P.Q.P.Q.Q.P.Q.P.L.C.A.w.H.t.k.a.0.8.F.}._.g.=...v ` ' } N.f 8 ' - / n 4 ",
"q % & - ) 8 e d S.) ` V...=.g.:.<.|.i.9.a.j.l.H.w.A.C.K.P.Q.P.T.T.P.Q.P.K.C.A.w.H.l.j.a.9.i.|.<.:.g.=...V.` ) S.d e 8 ) - & % q ",
"q n U.; ! >.f N.S.) ` v X ].6._.}.|.i.9.b.j.l.H.w.A.C.L.M.P.P.T.T.P.P.M.L.C.A.w.H.l.j.b.9.i.|.}._.6.].X v ` ) S.N.f >.! ; U.n q ",
"q % / - ) | f x.} ' _ V.X =.s.:.}.h.8.9.a.j.Y.H.w.A.C.L.M.P.P.T.T.P.P.M.L.C.A.w.H.Y.j.a.9.8.h.}.:.s.=.X V._ ' } x.f | ) - / % q ",
"q R.U.; ) 8 f N.S.! ` D.X ].s.:.<.F.7.0.b.k.l.u.w.A.C.K.P.P.Q.X.X.Q.P.P.K.C.A.w.u.l.k.b.0.7.F.<.:.s.].X D.` ! S.N.f 8 ) ; U.R.q ",
"q R.U.; ) 8 f N.S.) ` D.X =.6.:.}.|.i.9.b.j.l.H.w.A.B.L.P.P.T.T.T.T.P.P.L.B.A.w.H.l.j.b.9.i.|.}.:.6.=.X D.` ) S.N.f 8 ) ; U.R.q ",
"5 R./ - ) 1.f f } ) ` V.X =.g.:.[.F.7.9.b.k.l.H.w.A.C.K.P.P.Q.Q.Q.Q.P.P.K.C.A.w.H.l.k.b.9.7.F.[.:.g.=.X V.` ) } f f 1.) - / R.5 ",
"5 R.U.- ' 8 g f 1 ! _ V...=.g.:.}.h.i.9.b.k.Y.H.w.A.B.K.M.Q.Q.T.T.Q.Q.M.K.B.A.w.H.Y.k.b.9.i.h.}.:.g.=...V._ ! 1 f g 8 ' - U.R.5 ",
"q R.U.- ! 8 f x.S.) : w Y 4.s.:.[.|.h.9.b.j.l.u.v.z.B.J.L.P.P.P.P.P.P.L.J.B.z.v.u.l.j.b.9.h.|.[.:.s.4.Y w : ) S.x.f 8 ! - U.R.q ",
"q % / ; ' 8 f N.} ! `.v X ].6.:.[.}.8.9.a.Z.l.H.I.A.B.J.L.P.Q.Q.Q.Q.P.L.J.B.A.I.H.l.Z.a.9.8.}.[.:.6.].X v `.! } N.f 8 ' ; / % q ",
"q R.& ; ' >.e N.S.! `.V.W =.s.:.<.|.i.9.a.j.l.W.w.A.B.J.M.P.Q.Q.Q.Q.P.M.J.B.A.w.W.l.j.a.9.i.|.<.:.s.=.W V.`.! S.N.e >.' ; & R.q ",
"q R./ ; ' 8 f N.} ' ` V...=.g.:.<.F.7.9.b.Z.l.H.I.A.A.C.L.P.Q.T.T.Q.P.L.C.A.A.I.H.l.Z.b.9.7.F.<.:.g.=...V.` ' } N.f 8 ' ; / R.q ",
"5 R.U.; ' | f d } ) ` D.X =.g.:.}.F.i.0.a.j.l.H.I.A.B.K.L.P.P.T.T.P.P.L.K.B.A.I.H.l.j.a.0.i.F.}.:.g.=.X D.` ) } d f | ' ; U.R.5 ",
"q % & - ' >.e d } ) _ D...4.6.:.[.F.7.9.a.j.l.W.I.z.C.K.M.Q.Q.Q.Q.Q.Q.M.K.C.z.I.W.l.j.a.9.7.F.[.:.6.4...D._ ) } d e >.' - & % q ",
"q n / - ) 8 f d } ! ` V...].g.:.}.F.7.9.b.j.l.H.w.A.C.K.P.P.Q.T.T.Q.P.P.K.C.A.w.H.l.j.b.9.7.F.}.:.g.]...V.` ! } d f 8 ) - / n q ",
"q n U.- ) 8 f N.S.' ` v X =.6.:.}.F.i.9.G.j.l.H.w.A.C.L.L.Q.Q.X.X.Q.Q.L.L.C.A.w.H.l.j.G.9.i.F.}.:.6.=.X v ` ' S.N.f 8 ) - U.n q ",
"4 R./ ; ' 8 f N.S.' ` D...=.s._.[.F.7.0.a.j.t.u.w.A.C.K.M.Q.Q.Q.Q.Q.Q.M.K.C.A.w.u.t.j.a.0.7.F.[._.s.=...D.` ' S.N.f 8 ' ; / R.4 ",
"q n U.; ! 8 e d S.! ` V...=.g.:.<.|.i.9.a.j.l.u.w.A.C.L.P.Q.Q.X.X.Q.Q.P.L.C.A.w.u.l.j.a.9.i.|.<.:.g.=...V.` ! S.d e 8 ! ; U.n q ",
"q % & - ! 8 f N.} ) ` v ..=.g.:.}.|.i.9.b.j.l.u.w.A.C.L.P.P.P.T.T.P.P.P.L.C.A.w.u.l.j.b.9.i.|.}.:.g.=...v ` ) } N.f 8 ! - & % q ",
"q n / - ) | f x.} ) ` V.W =.s._.}.|.i.9.a.Z.Y.H.w.A.C.L.P.P.Q.X.X.Q.P.P.L.C.A.w.H.Y.Z.a.9.i.|.}._.s.=.W V.` ) } x.f | ) - / n q ",
"q R.U.- ! >.f N.} ) ` u W =.6._.<.F.7.0.b.j.l.H.I.A.C.L.P.Q.Q.X.X.Q.Q.P.L.C.A.I.H.l.j.b.0.7.F.<._.6.=.W u ` ) } N.f >.! - U.R.q ",
"q n & ; ) 8 e N.S.! ` D.X =.6._.[.|.7.0.b.j.l.H.w.A.C.L.M.Q.Q.T.T.Q.Q.M.L.C.A.w.H.l.j.b.0.7.|.[._.6.=.X D.` ! S.N.e 8 ) ; & n q ",
"q n / ; ) 8 f x.} ! ` v ..=.g.:.}.|.i.9.b.j.t.H.w.A.B.L.M.P.P.Q.Q.P.P.M.L.B.A.w.H.t.j.b.9.i.|.}.:.g.=...v ` ! } x.f 8 ) ; / n q ",
"q n & - ! 1.f d S.) _ V...].6.:.}.|.i.0.b.k.l.W.w.A.B.L.P.Q.P.X.X.P.Q.P.L.B.A.w.W.l.k.b.0.i.|.}.:.6.]...V._ ) S.d f 1.! - & n q ",
"q R./ - ) 8 f d } ! _ v X 4.g.:.<.F.i.0.G.k.l.u.w.A.B.L.M.Q.Q.Q.Q.Q.Q.M.L.B.A.w.u.l.k.G.0.i.F.<.:.g.4.X v _ ! } d f 8 ) - / R.q ",
"q % / - ) 8 f d } ) ` V.X ].s.:.[.F.7.9.a.j.t.H.w.A.C.L.P.Q.P.Q.Q.P.Q.P.L.C.A.w.H.t.j.a.9.7.F.[.:.s.].X V.` ) } d f 8 ) - / % q ",
"q n U.- ) 8 f N.} ! ` D.W ].g._.}.F.i.9.b.k.Y.H.w.A.B.L.M.P.P.X.X.P.P.M.L.B.A.w.H.Y.k.b.9.i.F.}._.g.].W D.` ! } N.f 8 ) - U.n q ",
"q n U.- ! 8 f N.S.) ` V.X ].g.:.<.h.8.9.b.Z.Y.H.I.A.C.J.P.P.P.X.X.P.P.P.J.C.A.I.H.Y.Z.b.9.8.h.<.:.g.].X V.` ) S.N.f 8 ! - U.n q ",
"q n / ; ) | f d } ! ` u W 4.(.:.[.}.h.9.9.b.l.t.v.w.O.K.J.L.L.Q.Q.L.L.J.K.O.w.v.t.l.b.9.9.h.}.[.:.(.4.W u ` ! } d f | ) ; / n q ",
"4 p o = H >.f c } ) ( D.E.*. +g.:.[.}.i.8.a.k.Y.H.v.z.O.C.K.J.M.M.J.K.C.O.z.v.H.Y.k.a.8.i.}.[.:.g. +*.E.D.( ) } c f >.H = o p 4 ",
".+p ;.* , } c d.[ I ~ q.y.&.=.^./.6._.[.|.7.9.a.m.l.H.v.w.z.z.A.A.z.z.w.v.H.l.m.a.9.7.|.[._.6./.^.=.&.y.q.~ I [ d.c } , * ;.p .+",
"n.5 ++/ > [ 0 9 ` ; H k e.#.&.*.f.].^. +(.6.[.F.7.9.a.j.j.m.m.l.l.m.m.j.j.a.9.7.F.[.6.(. +^.].f.*.&.#.e.k H ; ` 9 0 [ > / ++5 n.",
"@+4 R.;.= ~ | S.) = ; e K W ,.#.$.).2.3.~.f.=.^. +(.s.:.<.}.}.|.|.}.}.<.:.s.(. +^.=.f.~.3.2.).$.#.,.W K e ; = ) S.| ~ = ;.R.4 @+",
"{ 3 q R./ p._ ( > o * a A e.T V E. .X Z Z @.#.#+!.&.~.{.f.].4.].].4.].f.{.~.&.!.#+#.@.Z Z X  .E.V T e.A a * o > ( _ p./ R.q 3 { ",
"2 $ 3 q n * ' , c.R.o } $+%+&+M O *+P e.=+S T U W ..-++.+.Z @.,.,.@.Z +.+.-+..W U T S =+e.P *+O M &+%+$+} o R.c., ' * n q 3 $ 2 ",
"# 2 ] 3 q o ;+;+7 q R.! g V.>+,+A B J C D E L L N N Q P e.e.P e.e.P e.e.P Q N N L L E D C J B A ,+>+V.g ! R.q 7 ;+;+o q 3 ] 2 # ",
"# # @ $ 3 o.;.7 q '+^ * >.f i k l )+!+t u D.v w ~+>+z {+A B A B B A B A {+z >+~+w v D.u t !+)+l k i f >.* ^ '+q 7 ;.o.3 $ @ # # ",
"+ + # @ 6 @+q 5 m 2 { n ! S.8 9 0 0 a d.d.d N.f f ]+]+i j k )+l l )+k j i ]+]+f f N.d d.d.a 0 0 9 8 S.! n { 2 m 5 q @+6 @ # + + ",
"  . + # # 6 m '+@ # @ 5 U.I ! ~ ~ ~ ( ` ` `.< : } } | 1 >.>.8 >.>.8 >.>.1 | } } : < `.` ` ( ~ ~ ~ ! I U.5 @ # @ '+m 6 # # + .   ",
"  . . . + @ 6 @ # + # m % c.;+= ; ; ; ; > I I , ' H ) ~ ! ~ ~ ~ ~ ~ ~ ! ~ ) H ' , I I > ; ; ; ; = ;+c.% m # + # @ 6 @ + . . .   "};
